<svg id="ewfzgtRhkPE1" xmlns="http://www.w3.org/2000/svg" xmlns:xlink="http://www.w3.org/1999/xlink" viewBox="0 0 300 300" shape-rendering="geometricPrecision" text-rendering="geometricPrecision"><path d="M92.407685,105.551799c0,0,19.978809-26.945006,40.387081-6.754999c7.982575,7.897202,3.625812,22.050021-4.310424,29.993789-8.704175,8.712436-33.718292,7.031137-33.718292,7.031137" transform="translate(-10.792037 0.000001)" fill="none" stroke="#3f5787" stroke-width="8" stroke-linecap="round" stroke-linejoin="round"/><path d="M81.485371,136.943094c0,0,20.184716,34.214066,42.659154,36.455249" transform="matrix(.993892 0.110356-.110356 0.993892 17.751921-10.398442)" fill="none" stroke="rgba(8,109,142,0.92)" stroke-width="8" stroke-linecap="round" stroke-linejoin="round"/><path d="M70.61936,98.394354c0,0-19.481533-7.129158-25.435931-2.307027-9.329444,7.555391-4.747433,39.734399-4.747433,39.734399l30.585809.402444" transform="matrix(-.873626-.486598-.486598 0.873626 218.58107 95.893903)" fill="none" stroke="rgba(63,87,135,0.76)" stroke-width="8" stroke-linecap="round" stroke-linejoin="round"/><path d="M81.485371,191.76156c0-27.889428,0-92.964761,0-92.964761" transform="translate(0 0.000001)" fill="none" stroke="#213c71" stroke-width="8" stroke-linecap="round" stroke-linejoin="round"/></svg>
